<?xml version="1.0" encoding="utf-8"?>
<!-- Generator: Adobe Illustrator 24.0.1, SVG Export Plug-In . SVG Version: 6.00 Build 0)  -->
<svg version="1.1" id="Layer_1" xmlns="http://www.w3.org/2000/svg" xmlns:xlink="http://www.w3.org/1999/xlink" x="0px" y="0px"
	 viewBox="0 0 52 21.6" style="enable-background:new 0 0 52 21.6;" xml:space="preserve">
<style type="text/css">
	.st0{fill:#EA0029;}
	.st1{fill:#F5A800;}
	.st2{fill:#FFFFFF;}
</style>
<title>Asset 4</title>
<g>
	<rect x="0" y="0" class="st0" width="52" height="21.6"/>
	<g>
		<path class="st1" d="M16.7,12.9c-0.9,0-1.7-0.8-1.7-1.7c0-0.9,0.8-1.7,1.7-1.7c0.9,0,1.7,0.8,1.7,1.7
			C18.4,12.1,17.7,12.9,16.7,12.9"/>
		<path class="st2" d="M22.8,15.2V3.8h1.9v4.3c0.5-0.7,1.4-1.3,2.6-1.3c0.9,0,1.6,0.3,2.2,0.9c0.6,0.6,0.9,1.4,0.9,2.5v5h-2v-4.5
			c0-1.4-0.7-2.1-1.8-2.1c-1.2,0-2,0.9-2,2.2v4.4H22.8z"/>
		<path class="st2" d="M33.6,10.4H38c-0.2-1.1-1-1.9-2.1-1.9C34.7,8.5,33.9,9.2,33.6,10.4 M39.9,11.8h-6.2c0.3,1.1,1.1,1.9,2.5,1.9
			c1,0,1.9-0.3,2.7-0.8l0.8,1.4c-1,0.8-2.2,1.1-3.6,1.1c-3.1,0-4.4-2.1-4.4-4.3c0-1.2,0.4-2.3,1.2-3.1c0.8-0.8,1.8-1.2,3.1-1.2
			c1.2,0,2.2,0.4,2.9,1.1c0.8,0.7,1.1,1.7,1.1,3C39.9,11.2,39.9,11.5,39.9,11.8"/>
		<polygon class="st2" points="43.8,13.6 48.1,13.6 48.1,15.2 41.1,15.2 41.1,13.9 45.3,8.7 41.3,8.7 41.3,7.1 48,7.1 48,8.4 		"/>
		<path class="st2" d="M11.1,7.1H7.1v2h2.1v4.6c0,1.4-0.8,2.3-2.1,2.3c-0.8,0-1.5-0.3-2.1-1l-1,1.5c0.9,0.9,2,1.3,3.3,1.3
			c1.2,0,2.1-0.3,2.8-1c0.7-0.7,1.1-1.7,1.1-3V9h0V7.1z"/>
		<path class="st2" d="M19.4,7.1v0.7c-0.7-0.6-1.6-0.9-2.6-0.9c-2.4,0-4.3,1.9-4.3,4.3c0,2.4,1.9,4.3,4.3,4.3c1,0,1.9-0.3,2.6-0.9
			v0.7h1.8V7.1H19.4z M16.7,13.8c-1.5,0-2.6-1.2-2.6-2.6c0-1.5,1.2-2.6,2.6-2.6c1.5,0,2.6,1.2,2.6,2.6
			C19.3,12.6,18.2,13.8,16.7,13.8z"/>
	</g>
</g>
</svg>
